# xmcd
#
# Track frame offsets: 
#        150
#        12633
#        23032
#        36675
#        49548
#        63239
#        71589
#        84530
#        97884
#        109993
#        122506
#        135545
#        145897
#        158970
#        172959
#        187193
#        199768
#        211983
#        224105
#        238624
#        250122
#        262428
#        275837
#        289294
#        299921
#
# Disc length: 4151 seconds
#
# Revision: 0
# Processed by: cddbd v1.5.2PL0 Copyright (c) Steve Scherf et al.
# Submitted via: ExactAudioCopyFreeDBPlugin 1.0
#
DISCID=9b103519
DTITLE=Various Artist - Lonesome Highway - This Land Is Your Land CD2
DYEAR=2015
DGENRE=Blues
TTITLE0=Roy Acuff - The Wreck On The Highway
TTITLE1=Woody Guthrie - This Land Is Your Land
TTITLE2=Nat King Cole - (Get Your Kicks On) Route 66
TTITLE3=Bill Monroe - Heavy Traffic Ahead
TTITLE4=The Treniers - My Convertable Cadillac
TTITLE5=Woody Guthrie - Car Song
TTITLE6=Roy Acuff - There's A Big Rock In The Road
TTITLE7=Ernest Tubb - Headin' Down The Wrong Highway
TTITLE8=Bill Monroe - Old Cross Road
TTITLE9=Dick Reinhart - Hot Rod Baby
TTITLE10=Big Joe Williams - I'm A Highway Man
TTITLE11=The Pilgrim Travelers - I'm Standing On The Highway
TTITLE12=The Five Blind Boys Of Mississippi - Jesus Traveled This Road
TTITLE12=Before
TTITLE13=John Lee Hooker - Highway Blues
TTITLE14=John Lee Hooker - Road Trouble
TTITLE15=Lightnin' Hopkins - Automobile Blues
TTITLE16=Hank Williams - Lost Highway
TTITLE17=Flatt and Scruggs - Down The Road
TTITLE18=Bill Monroe - Travelin' This Lonesome Road
TTITLE19=Drifting Johnny Smith - Service Station
TTITLE20=Hank Snow - Paving The Highway With Tears
TTITLE21=Roy Brown - Cadillac Baby
TTITLE22=Hank Williams - I've Been Down That Road Before
TTITLE23=Curley Rash and His South Texas Playboys - Humble Road Boogie
TTITLE24=The Ravens - I'm Gonna Take To The Road
EXTD=
EXTT0=
EXTT1=
EXTT2=
EXTT3=
EXTT4=
EXTT5=
EXTT6=
EXTT7=
EXTT8=
EXTT9=
EXTT10=
EXTT11=
EXTT12=
EXTT13=
EXTT14=
EXTT15=
EXTT16=
EXTT17=
EXTT18=
EXTT19=
EXTT20=
EXTT21=
EXTT22=
EXTT23=
EXTT24=
PLAYORDER=
